# xmcd
#
# Track frame offsets:
#	150
#	13771
#	22047
#	37955
#	45947
#	60547
#	74995
#	86991
#	97359
#	106531
#	116103
#	133403
#	146983
#	156219
#	167119
#	178323
#	190143
#	201215
#	212771
#	221403
#	232987
#	242727
#	254143
#	265835
#
# Disc length: 3702 seconds
#
# Revision: 0
# Processed by: cddbd v1.5.2PL0 Copyright (c) Steve Scherf et al.
# Submitted via: audiograbber 1.83.01
#
DISCID=780e7418
DTITLE=Paul Anka - My Heart Sings
DYEAR=1900
DGENRE=
TTITLE0=My Heart Sings
TTITLE1=Under Paris Skies
TTITLE2=Autumn Leaves
TTITLE3=Pigalle
TTITLE4=Comme Ci, Comme Ca
TTITLE5=C'est Si Bon
TTITLE6=Melodie D'Amour
TTITLE7=I Miss You So
TTITLE8=I Love Paris
TTITLE9=If You Love Me
TTITLE10=Les Filles De Paris
TTITLE11=So It's Goodbye
TTITLE12=Late Last Night
TTITLE13=Faibles Femmes
TTITLE14=I've Heard That Song Before
TTITLE15=Put Your Head On My Shoulder
TTITLE16=Don't Ever Leave Me
TTITLE17=That's Love
TTITLE18=Midnight
TTITLE19=Side By Side
TTITLE20=I Love You Baby
TTITLE21=Lonely Boy
TTITLE22=Verboten!
TTITLE23=Your Love
EXTD=
EXTT0=
EXTT1=
EXTT2=
EXTT3=
EXTT4=
EXTT5=
EXTT6=
EXTT7=
EXTT8=
EXTT9=
EXTT10=
EXTT11=
EXTT12=
EXTT13=
EXTT14=
EXTT15=
EXTT16=
EXTT17=
EXTT18=
EXTT19=
EXTT20=
EXTT21=
EXTT22=
EXTT23=
PLAYORDER=
